<?xml version="1.0" encoding="utf-8"?>
<!-- Generator: Adobe Illustrator 26.0.0, SVG Export Plug-In . SVG Version: 6.00 Build 0)  -->
<svg version="1.1" id="Layer_1" xmlns="http://www.w3.org/2000/svg" xmlns:xlink="http://www.w3.org/1999/xlink" x="0px" y="0px"
	 viewBox="0 0 1641.9 554.3" style="enable-background:new 0 0 1641.9 554.3;" xml:space="preserve">
<style type="text/css">
	.st0{fill:#137AE1;}
	.st1{fill:#DDCE0B;}
</style>
<g id="Character_00000039826182135072414070000016352920049323683971_">
	<g>
		<g>
			<path class="st0" d="M44.1,163.9c6.4-24.7,18.1-47,35.1-66.6c24.4-28.2,54.7-46.8,91.1-54.8c41.8-9.1,81.9-3.5,119.2,17.6
				c38,21.5,63.9,53.3,77.7,94.8c1,3,1.9,6,2.7,9h39.3c-11.7-54.3-41-97.5-87.2-128.7C275.2,3.6,223.3-6.3,168,3.8
				c-31.5,5.8-60.2,18.6-85.6,38.3C41,73.9,15.2,114.6,4.8,163.9L44.1,163.9L44.1,163.9z"/>
			<g>
				<path class="st0" d="M79.2,97.2c24.4-28.2,54.7-46.8,91.1-54.8c41.8-9.1,81.9-3.5,119.2,17.6c38,21.5,63.9,53.3,77.7,94.8
					c1,3,1.9,6,2.7,9h39.3c-11.7-54.3-41-97.5-87.2-128.7C275.2,3.6,223.3-6.3,168,3.8c-31.5,5.8-60.2,18.6-85.6,38.3
					C41,73.9,15.2,114.6,4.8,163.9h39.3C50.5,139.1,62.2,116.9,79.2,97.2z"/>
			</g>
			<path class="st0" d="M309.8,386.2c-28.9,43.8-63.2,83.2-100.3,120.3c-0.7,0.7-1.6,1.4-3,2.6c-5.1-5.4-10.1-10.5-15.1-15.7
				c-32.1-33.3-61.8-68.6-87.3-107.1H58.4c0.5,0.8,0.9,1.5,1.4,2.3c35.5,57.6,78.8,109,128.2,155.2c4.4,4.1,9.7,7.2,14.6,10.7
				c2.9,0,5.8,0,8.7,0c3.5-2.2,7.3-3.9,10.3-6.6c37.9-34.9,72.3-73.1,102.7-114.8c11.1-15.2,21.6-30.7,31.3-46.7H309.8z"/>
			<path class="st1" d="M249.4,203.4v66.2H165v85.6H40.9c-13.9-26.9-25.2-54.9-32.6-84.6c-5.5-22.1-8.7-44.5-8.2-67.1H79v66.8h-31
				c7.6,26.4,18.4,51.3,31.5,75.3v-75.9h84.3v-66.2L249.4,203.4L249.4,203.4z"/>
			<path class="st1" d="M399.3,292.8c-7,21.7-15.9,42.4-26.2,62.3H249.4v-85.6h85.6v75c13.1-23.9,23.9-48.7,31.2-75h-31.2v-66.2
				h78.9C414.5,233.7,408.8,263.5,399.3,292.8z"/>
		</g>
		<g>
			<path class="st0" d="M550.8,182.7h45.3V345h79v38H550.8V182.7z"/>
			<path class="st0" d="M693,306.8c0-49.4,35.3-79.9,71.9-79.9c43.4,0,64.9,31.6,64.9,73.1c0,8.1-1,16.3-1.9,20h-91.2
				c4,22.1,19.2,32.3,39.5,32.3c11.5,0,21.9-3.5,33-10l14.9,27.2c-15.6,10.8-36,17.2-54.1,17.2C726.7,386.6,693,357.2,693,306.8z
				 M791.2,290.1c0-16.8-7.3-28.8-25.3-28.8c-14.3,0-26.6,9.6-29.7,28.8L791.2,290.1L791.2,290.1z"/>
			<path class="st0" d="M850.6,340.7c0-32.1,25.6-49.5,85.8-55.9c-0.9-13.3-7.5-22-24.1-22c-12.8,0-25.5,5.4-40.3,13.8L856,246.9
				c19.3-11.8,41.1-20.1,65.1-20.1c39,0,60.5,22.3,60.5,69v87.1h-36.8l-3.3-15.6h-1.1c-12.8,11.3-27.2,19.3-44.3,19.3
				C868.2,386.6,850.6,366.3,850.6,340.7z M936.4,338.6V312c-32.1,4.3-42.6,13.5-42.6,25c0,9.8,6.8,14.6,17.5,14.6
				C921.6,351.7,928.4,346.6,936.4,338.6z"/>
			<path class="st0" d="M1011.7,306.8c0-49.8,31.1-79.9,63.2-79.9c16.8,0,27.1,6.2,37.4,15.9l-1.6-23.1v-51.9h45.2v215.2h-36.8
				l-3.3-15.1h-1.1c-10.8,10.8-25.8,18.8-40.5,18.8C1036.1,386.6,1011.7,356.5,1011.7,306.8z M1110.6,336v-62.6
				c-8-7.2-16.9-9.6-25.2-9.6c-14.6,0-27.4,13.5-27.4,42.5c0,29.9,10.3,43.4,27.8,43.4C1095.4,349.7,1103.1,346,1110.6,336z"/>
			<path class="st0" d="M1186.7,306.8c0-50.7,37.3-79.9,79.4-79.9c18.8,0,33.2,6.7,44.5,16.4l-21.3,29c-7.3-6.2-13.4-9-20.7-9
				c-21.7,0-35.7,17.1-35.7,43.5c0,26.4,14.5,43.4,34.1,43.4c10,0,19.6-4.9,27.5-11.2l17.7,29.5c-14.8,13.1-33.7,18.1-50.2,18.1
				C1219.5,386.6,1186.7,357.3,1186.7,306.8z"/>
			<path class="st0" d="M1328.9,340.7c0-32.1,25.6-49.5,85.8-55.9c-0.9-13.3-7.5-22-24.1-22c-12.8,0-25.5,5.4-40.3,13.8l-16.1-29.6
				c19.3-11.8,41.1-20.1,65.1-20.1c39,0,60.5,22.3,60.5,69v87.1H1423l-3.3-15.6h-1.1c-12.8,11.3-27.2,19.3-44.3,19.3
				C1346.5,386.6,1328.9,366.3,1328.9,340.7z M1414.7,338.6V312c-32.1,4.3-42.6,13.5-42.6,25c0,9.8,6.8,14.6,17.5,14.6
				C1399.8,351.7,1406.7,346.6,1414.7,338.6z"/>
			<path class="st0" d="M1538,366.7h-1.1l-3.8,16.3h-35.3V167.7h45.2v52.6l-1.1,23.4c11.6-10.4,25.9-16.9,40.3-16.9
				c36.9,0,59.7,30.5,59.7,77.2c0,52.5-31.1,82.5-64.1,82.5C1564.1,386.6,1550.1,379.7,1538,366.7z M1595.6,304.8
				c0-27.3-8.5-41-26.5-41c-9.3,0-17.4,4.2-26.2,13.7V340c8.1,7.2,16.7,9.6,24.3,9.6C1583,349.7,1595.6,336.4,1595.6,304.8z"/>
		</g>
	</g>
</g>
</svg>
