<?xml version="1.0" encoding="utf-8"?>
<!-- Generator: Adobe Illustrator 26.0.0, SVG Export Plug-In . SVG Version: 6.00 Build 0)  -->
<svg version="1.1" id="Layer_1" xmlns="http://www.w3.org/2000/svg" xmlns:xlink="http://www.w3.org/1999/xlink" x="0px" y="0px"
	 viewBox="0 0 2269.8 582.16" style="enable-background:new 0 0 2269.8 582.16;" xml:space="preserve">
<style type="text/css">
	.st0{fill:url(#SVGID_1_);}
</style>
<linearGradient id="SVGID_1_" gradientUnits="userSpaceOnUse" x1="1463.9735" y1="-316.3862" x2="752.3563" y2="779.4083">
	<stop  offset="0" style="stop-color:#5865B9"/>
	<stop  offset="1" style="stop-color:#1C91E2"/>
</linearGradient>
<path class="st0" d="M1047.87,269.41c-6.5,0-11.76,5.27-11.76,11.76c-12.35-10.29-28.52-16.17-48.51-16.17
	c-37.33,0-72.02,31.76-72.02,77.91s34.68,77.61,72.02,77.61c19.99,0,36.16-5.87,48.51-15.87v11.46h38.81v-146.7H1047.87z
	 M994.37,386.71c-23.52,0-41.16-16.75-41.16-43.8c0-27.05,17.64-44.1,41.16-44.1c20.87,0,41.74,17.05,41.74,44.1
	C1036.11,369.95,1015.24,386.71,994.37,386.71z M1217.8,268.53l-2.06,37.34h-8.53c-35.87,0-52.33,22.05-52.33,62.91v47.33h-38.81
	v-146.7h38.81v26.75c11.76-17.05,28.81-28.81,52.62-28.81C1211.33,267.35,1214.27,267.35,1217.8,268.53z M1242.19,416.11V243.25
	c0-21.43,17.37-38.81,38.81-38.81l0,0v211.67H1242.19z M1804,225.61c0,12.94-10,22.64-23.52,22.64c-13.82,0-23.52-9.7-23.52-22.64
	c0-12.35,9.7-23.22,23.52-23.22C1794,202.38,1804,213.26,1804,225.61z M1761.08,416.11V308.22c0-21.43,17.37-38.81,38.81-38.81l0,0
	v146.7H1761.08z M1944.82,268.53l-2.06,37.34h-8.53c-35.87,0-52.33,22.05-52.33,62.91v47.33h-38.81v-146.7h38.81v26.75
	c11.76-17.05,28.81-28.81,52.62-28.81C1938.35,267.35,1941.29,267.35,1944.82,268.53z M2074.75,243.25v37.92
	c-12.35-10.29-28.52-16.17-48.51-16.17c-37.34,0-72.03,31.76-72.03,77.91s34.69,77.61,72.03,77.61c19.99,0,36.16-5.87,48.51-15.87
	v11.46h38.8V204.44C2092.12,204.44,2074.75,221.82,2074.75,243.25z M2033.01,386.71c-23.52,0-41.16-16.75-41.16-43.8
	c0-27.05,17.64-44.1,41.16-44.1c20.88,0,41.75,17.05,41.75,44.1C2074.76,369.95,2053.89,386.71,2033.01,386.71z M2175.47,215.06
	h-16.6v-8.13h42.37v8.13h-16.69v53.17h-9.08V215.06z M2260.64,206.93h9.17v61.3h-9.08V221.2l-17.9,24.64h-7l-17.98-24.64v47.03
	h-9.08v-61.3h9.08l21.49,29.48L2260.64,206.93z M780.94,255.39v-0.09H890l0,0c0-19.97-16.19-36.16-36.16-36.16H740.95v36.25H780.94z
	 M780.94,379.95v-44.69h100.54l0,0c0-19.65-15.93-35.57-35.57-35.57h-24.52h-40.45h-39.98v116.42H890.6l0,0
	c0-19.97-16.19-36.16-36.16-36.16L780.94,379.95L780.94,379.95z M1691.69,315.57v-1.18c11.76-2.06,28.81-15.58,28.81-40.57
	c0-32.93-22.64-54.68-58.21-54.68h-97.01v27.88c0,22.08,17.9,39.98,39.98,39.98v-33.76h52.62c12.93,0,23.81,9.11,23.81,22.93
	c0,15.29-10.58,25.28-26.46,25.28h-33.39h-16.59h-39.98V416.1h97.31c43.8,0,63.5-22.64,63.5-54.68
	C1726.09,333.5,1707.86,317.62,1691.69,315.57z M1658.18,382.01h-52.92v-48.8h55.04c13.52,0,24.88,10.77,24.92,24.28
	C1685.28,372.25,1676.16,382.01,1658.18,382.01z M525.97,101.29c-1.13,0.67-2.25,1.34-3.37,2.02c1.17-0.58,2.35-1.16,3.53-1.72
	C526.08,101.49,526.02,101.39,525.97,101.29z M715.39,0.04l-5.93,0.38l-0.55,0.06c-82.99,11.93-163.5,43.16-232.83,90.31
	c-70.55,47.98-130.03,112.53-172,186.66c-18.71,33.01-34.07,68.12-45.66,104.37c-4.9,15.35-9.19,31.18-12.74,47.05
	c-0.23,0.96-0.44,1.9-0.66,2.87l-2.1,9.6l7.19,6.73c0.67,0.62,1.42,1.33,2.2,2.02c51.75,47.39,118.93,73.48,189.16,73.48
	c14.23,0,28.52-1.08,42.48-3.2c7.35-1.12,14.63,1.84,19.01,7.71c10.12,13.58,22.67,30.72,31.41,42.7
	c5.42,7.43,13.91,11.38,22.51,11.38c5.59,0,11.23-1.67,16.1-5.15l5.65-4.04l-10.05-14.07c-18.07-25.25-36.77-50.39-55.57-74.7
	c-0.24-0.34-0.46-0.63-0.64-0.84l-0.02-0.03c-46.2-59.76-95.42-117.88-146.37-172.88c-0.06,0.11-0.12,0.22-0.18,0.33
	c-10.64,19.14-8,42.92,6.42,59.4c30.28,34.58,71.79,82.65,99.24,117.02c-9.92,1.21-19.98,1.82-30,1.82
	c-59.07,0-115.89-21.15-160.46-59.63c2.98-12.42,6.45-24.85,10.34-37.04c10.84-33.96,25.24-66.88,42.8-97.85
	C409.71,161.04,543.38,65.88,693.48,38.04c-57.31,137.41-173.6,238.55-262.32,299.79l22.7,26.31
	c97.76-68,224.52-180.9,280.51-335.93c0.73-2,1.47-4.08,2.19-6.19l0.33-0.96l0,0C737.39,9.07,727.38-0.72,715.39,0.04z
	 M186.55,168.23c1.51,1.09,2.98,2.18,4.4,3.29c0.95,0.73,2.34,0.45,2.9-0.61c1.99-3.73,2.22-8.54-0.51-13.35
	c-0.88-1.54-2.17-2.82-3.72-3.68c-6.09-3.38-12.22-2.06-16.07,1.62c-1.4,1.33-1.15,3.62,0.52,4.59
	C178.14,162.47,182.34,165.2,186.55,168.23z M192.15,173.17c-0.7,0-1.39-0.23-1.95-0.67c-1.42-1.1-2.89-2.2-4.37-3.26l0,0
	c-4.08-2.94-8.25-5.66-12.38-8.08c-1.13-0.66-1.86-1.78-2.01-3.08s0.31-2.57,1.26-3.48c4.64-4.43,11.52-5.14,17.53-1.8
	c1.76,0.98,3.21,2.41,4.2,4.15c2.72,4.79,2.91,10.09,0.53,14.55c-0.44,0.82-1.21,1.4-2.13,1.6
	C192.6,173.14,192.37,173.17,192.15,173.17z M187.28,167.22c1.5,1.08,2.99,2.19,4.44,3.31c0.17,0.13,0.38,0.18,0.59,0.13
	c0.12-0.02,0.33-0.1,0.46-0.34c1.97-3.69,1.79-8.12-0.5-12.15c-0.76-1.35-1.89-2.46-3.25-3.21c-6.12-3.39-11.56-1.49-14.61,1.43
	c-0.39,0.37-0.57,0.88-0.51,1.4c0.06,0.51,0.35,0.96,0.8,1.22C178.9,161.48,183.13,164.24,187.28,167.22L187.28,167.22z
	 M47.35,227.13v32.11H15.23v-21.68c0-8.38,1.43-16.06,4.28-23.01c2.85-6.96,7.58-13.74,14.18-20.34l11.77,9.1
	c-7.67,8.56-12.04,16.5-13.11,23.82H47.35z M95.25,227.13v32.11H63.13v-21.68c0-8.38,1.43-16.06,4.28-23.01
	c2.85-6.96,7.58-13.74,14.18-20.34l11.77,9.1c-7.67,8.56-12.04,16.5-13.11,23.82H95.25z M212.32,413.27l4.06,5.1
	c2.91-13.65,10.78-41.8,10.98-42.46c-18.73-26.44-31.83-55.87-38.97-87.61c-0.37-1.64-0.69-3.11-0.96-4.51l-3.64-23.54
	c-0.14-1.26-0.25-2.36-0.33-3.36l-0.15-1.55c-0.12-1.44-0.23-2.82-0.31-4.21c-0.02-0.37-0.07-0.75-0.14-1.12l-0.19-0.92
	c-1.4-7.17-8.66-43.38-15.94-62.27l-0.39-1.02l-4.41-8.86c-4.55-9.13-9.54-18.1-14.86-26.72c9.72-6.67,21.13-10.09,33.13-9.98
	c30.02,0.35,54.96,24.59,56.77,55.18c0.1,1.73-0.03,3.51-0.38,5.29l-2.11,10.62c-0.43,2.18,0.2,4.43,1.71,6.07l0,0
	c12.44,13.5,25.31,27.75,38.24,42.35l0.44,0.5c0.69-1.25,1.38-2.49,2.09-3.74c5.27-9.3,10.84-18.44,16.69-27.4l-18.15-19.95
	c-2.48-2.72-3.85-6.27-3.85-9.95l0,0c0-12.74-2.55-25.14-7.57-36.86c-4.86-11.33-11.78-21.46-20.57-30.13
	c-17.71-17.46-40.92-26.89-65.35-26.53c-20.94,0.29-40.35,7.3-56.41,20.33c-35.12-11.93-71.77-19.28-108.92-21.85
	c-6.16-0.42-11.72,3.87-12.67,9.78c-0.51,3.13,0.25,6.27,2.12,8.82s4.63,4.21,7.76,4.66c34.29,4.99,66.36,17.1,95.31,36.01
	c10.94,7.13,19.77,17.06,25.55,28.72l3.74,7.48c5.89,15.48,11.72,39.96,13.76,52.06l0.03,0.47c0.93,14.71,3.04,29.42,6.26,43.71
	c9.14,40.74,26.87,78.1,52.68,111.05L212.32,413.27z M1370.46,360.06l-13.61,31.4l-52.32-122.35h43.21l23.01,55.61
	C1375.44,336.05,1375.34,348.8,1370.46,360.06z M1470.33,269.11l-85.26,196.97h-43.21l68.1-157.31
	C1420.38,284.69,1444.1,269.11,1470.33,269.11z"/>
</svg>
