<?xml version="1.0" encoding="utf-8"?>
<!-- Generator: Adobe Illustrator 26.0.0, SVG Export Plug-In . SVG Version: 6.00 Build 0)  -->
<svg version="1.1" id="Layer_1" xmlns="http://www.w3.org/2000/svg" xmlns:xlink="http://www.w3.org/1999/xlink" x="0px" y="0px"
	 viewBox="0 0 220 220" style="enable-background:new 0 0 220 220;" xml:space="preserve">
<style type="text/css">
	.st0{display:none;fill:#137AE1;}
	.st1{fill:#137AE1;}
</style>
<g>
	<circle class="st0" cx="110" cy="110" r="110"/>
	<g>
		<path class="st1" d="M45.4,65c2.6-9.8,7.2-18.6,13.9-26.4C69,27.4,81,20,95.4,16.9c16.6-3.6,32.5-1.4,47.3,7
			c15.1,8.5,25.4,21.2,30.8,37.6c0.4,1.2,0.7,2.4,1.1,3.6h15.6c-4.6-21.5-16.3-38.7-34.6-51.1C137.1,1.4,116.5-2.5,94.5,1.5
			C82,3.8,70.6,8.9,60.5,16.7C44.1,29.3,33.9,45.5,29.8,65L45.4,65L45.4,65z"/>
		<g>
			<path class="st1" d="M59.3,38.6C69,27.4,81,20,95.4,16.9c16.6-3.6,32.5-1.4,47.3,7c15.1,8.5,25.4,21.2,30.8,37.6
				c0.4,1.2,0.7,2.4,1.1,3.6h15.6c-4.6-21.5-16.3-38.7-34.6-51.1C137.1,1.4,116.5-2.5,94.5,1.5C82,3.8,70.6,8.9,60.5,16.7
				C44.1,29.3,33.9,45.5,29.8,65h15.6C47.9,55.2,52.6,46.4,59.3,38.6z"/>
		</g>
		<path class="st1" d="M150.8,153.3c-11.5,17.4-25.1,33-39.8,47.7c-0.3,0.3-0.6,0.5-1.2,1c-2-2.1-4-4.2-6-6.2
			c-12.8-13.2-24.5-27.2-34.6-42.5H51c0.2,0.3,0.4,0.6,0.5,0.9c14.1,22.9,31.3,43.2,50.9,61.6c1.7,1.6,3.9,2.8,5.8,4.2
			c1.1,0,2.3,0,3.4,0c1.4-0.9,2.9-1.5,4.1-2.6c15.1-13.9,28.7-29,40.7-45.6c4.4-6,8.6-12.2,12.4-18.5H150.8z"/>
		<path class="st1" d="M126.8,80.7V107H93.4v34H44.1c-5.5-10.7-10-21.8-12.9-33.6c-2.2-8.8-3.5-17.7-3.3-26.6h31.3v26.5H46.9
			c3,10.5,7.3,20.4,12.5,29.9V107h33.5V80.7L126.8,80.7L126.8,80.7z"/>
		<path class="st1" d="M186.3,116.2c-2.8,8.6-6.3,16.8-10.4,24.7h-49.1v-34h34v29.8c5.2-9.5,9.5-19.3,12.4-29.8h-12.4V80.7h31.3
			C192.4,92.7,190.1,104.6,186.3,116.2z"/>
	</g>
</g>
</svg>
