<?xml version="1.0" encoding="utf-8"?>
<!-- Generator: Adobe Illustrator 26.0.0, SVG Export Plug-In . SVG Version: 6.00 Build 0)  -->
<svg version="1.1" id="Layer_1" xmlns="http://www.w3.org/2000/svg" xmlns:xlink="http://www.w3.org/1999/xlink" x="0px" y="0px"
	 viewBox="0 0 225 225" style="enable-background:new 0 0 225 225;" xml:space="preserve">
<g>
	<path d="M54.7,72.3c2.3-8.8,6.4-16.7,12.5-23.6c8.6-10,19.4-16.6,32.3-19.4c14.8-3.2,29.1-1.3,42.3,6.3
		c13.5,7.6,22.7,18.9,27.6,33.6c0.4,1.1,0.7,2.1,1,3.2h14c-4.1-19.3-14.5-34.6-31-45.7c-16.6-11.2-35-14.7-54.7-11.1
		c-11.2,2-21.4,6.6-30.4,13.6C53.6,40.4,44.4,54.8,40.7,72.3L54.7,72.3L54.7,72.3z"/>
	<g>
		<path d="M67.2,48.6c8.6-10,19.4-16.6,32.3-19.4c14.8-3.2,29.1-1.3,42.3,6.3c13.5,7.6,22.7,18.9,27.6,33.6c0.4,1.1,0.7,2.1,1,3.2
			h14c-4.1-19.3-14.5-34.6-31-45.7c-16.6-11.2-35-14.7-54.7-11.1c-11.2,2-21.4,6.6-30.4,13.6C53.6,40.4,44.4,54.8,40.7,72.3h13.9
			C57,63.5,61.1,55.6,67.2,48.6z"/>
	</g>
	<path d="M149,151.2c-10.3,15.6-22.4,29.6-35.6,42.7c-0.3,0.3-0.6,0.5-1.1,0.9c-1.8-1.9-3.6-3.7-5.4-5.6c-11.4-11.8-21.9-24.4-31-38
		H59.8c0.2,0.3,0.3,0.5,0.5,0.8c12.6,20.5,28,38.7,45.5,55.1c1.6,1.5,3.5,2.5,5.2,3.8c1,0,2.1,0,3.1,0c1.2-0.8,2.6-1.4,3.7-2.4
		c13.5-12.4,25.7-26,36.4-40.8c3.9-5.4,7.7-10.9,11.1-16.6H149z"/>
	<path d="M127.6,86.3v23.5H97.6v30.4H53.5c-4.9-9.5-8.9-19.5-11.6-30c-2-7.9-3.1-15.8-2.9-23.8h28V110h-11
		c2.7,9.4,6.5,18.2,11.2,26.7v-26.9h29.9V86.3L127.6,86.3L127.6,86.3z"/>
	<path d="M180.8,118.1c-2.5,7.7-5.7,15-9.3,22.1h-43.9v-30.4h30.4v26.6c4.6-8.5,8.5-17.3,11.1-26.6h-11.1V86.3h28
		C186.2,97.1,184.2,107.6,180.8,118.1z"/>
</g>
</svg>
