<?xml version="1.0" encoding="utf-8"?>
<!-- Generator: Adobe Illustrator 26.0.0, SVG Export Plug-In . SVG Version: 6.00 Build 0)  -->
<svg version="1.1" id="Layer_1" xmlns="http://www.w3.org/2000/svg" xmlns:xlink="http://www.w3.org/1999/xlink" x="0px" y="0px"
	 viewBox="0 0 225 225" style="enable-background:new 0 0 225 225;" xml:space="preserve">
<style type="text/css">
	.st0{fill:#FFFFFF;}
</style>
<g>
	<g>
		<g>
			<g>
				<g>
					<path class="st0" d="M158.8,56.7c-0.3,0.2-0.7,0.4-1,0.6C158.2,57.1,158.5,56.9,158.8,56.7C158.9,56.7,158.8,56.7,158.8,56.7z"
						/>
					<path class="st0" d="M220.8,33.1L220.8,33.1l-0.1,0.3c-0.2,0.6-0.4,1.2-0.6,1.8c-16.5,45.6-53.7,78.8-82.5,98.8l-6.7-7.7
						c26.1-18,60.3-47.8,77.1-88.2c-44.1,8.2-83.5,36.2-105.7,75.4c-5.2,9.1-9.4,18.8-12.6,28.8c-1.1,3.6-2.2,7.2-3,10.9
						c13.1,11.3,29.8,17.5,47.2,17.5c2.9,0,5.9-0.2,8.8-0.5c-8.1-10.1-20.3-24.2-29.2-34.4c-4.2-4.8-5-11.8-1.9-17.5
						c0,0,0-0.1,0.1-0.1c15,16.2,29.5,33.3,43,50.8l0,0c0.1,0.1,0.1,0.1,0.2,0.2c5.5,7.2,11,14.5,16.3,22l3,4.1l-1.7,1.2
						c-1.4,1-3.1,1.5-4.7,1.5c-2.5,0-5-1.2-6.6-3.3c-2.6-3.5-6.3-8.6-9.2-12.6c-1.3-1.7-3.4-2.6-5.6-2.3c-4.1,0.6-8.3,0.9-12.5,0.9
						c-20.7,0-40.4-7.7-55.6-21.6c-0.2-0.2-0.5-0.4-0.6-0.6l-2.1-2l0.6-2.8c0.1-0.3,0.1-0.6,0.2-0.8c1-4.7,2.3-9.3,3.7-13.8
						c3.4-10.7,7.9-21,13.4-30.7c12.3-21.8,29.8-40.8,50.6-54.9c20.4-13.9,44.1-23,68.5-26.6h0.2l1.7-0.1
						C218.1,26.7,221,29.6,220.8,33.1z"/>
				</g>
				<g>
					<path class="st0" d="M59,76.4c0.4,0.3,0.9,0.6,1.3,1c0.3,0.2,0.7,0.1,0.9-0.2c0.6-1.1,0.7-2.5-0.2-3.9
						c-0.3-0.5-0.6-0.8-1.1-1.1c-1.8-1-3.6-0.6-4.7,0.5c-0.4,0.4-0.3,1.1,0.2,1.4C56.5,74.7,57.8,75.5,59,76.4z"/>
					<path class="st0" d="M60.7,77.8c-0.2,0-0.4-0.1-0.6-0.2c-0.4-0.3-0.9-0.6-1.3-1l0,0c-1.2-0.9-2.4-1.7-3.6-2.4
						c-0.3-0.2-0.5-0.5-0.6-0.9c0-0.4,0.1-0.8,0.4-1c1.4-1.3,3.4-1.5,5.2-0.5c0.5,0.3,0.9,0.7,1.2,1.2c0.8,1.4,0.9,3,0.2,4.3
						c-0.1,0.2-0.4,0.4-0.6,0.5C60.8,77.8,60.7,77.8,60.7,77.8z M59.2,76.1c0.4,0.3,0.9,0.6,1.3,1c0,0,0.1,0.1,0.2,0
						c0,0,0.1,0,0.1-0.1c0.6-1.1,0.5-2.4-0.1-3.6c-0.2-0.4-0.6-0.7-1-0.9c-1.8-1-3.4-0.4-4.3,0.4c-0.1,0.1-0.2,0.3-0.2,0.4
						c0,0.2,0.1,0.3,0.2,0.4C56.8,74.4,58,75.2,59.2,76.1L59.2,76.1z"/>
				</g>
			</g>
		</g>
		<g>
			<path class="st0" d="M18.1,93.7v9.4H8.6v-6.4C8.6,94.3,9,92,9.9,90c0.8-2,2.2-4,4.2-6l3.5,2.7c-2.3,2.5-3.5,4.9-3.9,7H18.1z
				 M32.2,93.7v9.4h-9.4v-6.4c0-2.5,0.4-4.7,1.3-6.8c0.8-2,2.2-4,4.2-6l3.5,2.7c-2.3,2.5-3.5,4.9-3.9,7h4.3V93.7z"/>
		</g>
	</g>
	<path class="st0" d="M66.6,148.4l1.2,1.5c0.9-4,3.2-12.3,3.2-12.5c-5.5-7.8-9.4-16.4-11.5-25.8c-0.1-0.5-0.2-0.9-0.3-1.3l-1.1-6.9
		c0-0.4-0.1-0.7-0.1-1v-0.5c0-0.4-0.1-0.8-0.1-1.2c0-0.1,0-0.2,0-0.3l-0.1-0.3c-0.4-2.1-2.5-12.8-4.7-18.3L53,81.5l-1.3-2.6
		c-1.3-2.7-2.8-5.3-4.4-7.9c2.9-2,6.2-3,9.7-2.9c8.8,0.1,16.2,7.2,16.7,16.2c0,0.5,0,1-0.1,1.6L73,89c-0.1,0.6,0.1,1.3,0.5,1.8l0,0
		c3.7,4,7.4,8.2,11.2,12.5l0.1,0.1c0.2-0.4,0.4-0.7,0.6-1.1c1.5-2.7,3.2-5.4,4.9-8.1L85,88.3c-0.7-0.8-1.1-1.8-1.1-2.9l0,0
		c0-3.7-0.7-7.4-2.2-10.8c-1.4-3.3-3.5-6.3-6-8.9c-5.2-5.1-12-7.9-19.2-7.8c-6.2,0.1-11.9,2.1-16.6,6c-10.3-3.5-21.1-5.7-32-6.4
		c-1.8-0.1-3.4,1.1-3.7,2.9C4,61.3,4.3,62.3,4.8,63c0.6,0.8,1.4,1.2,2.3,1.4c10.1,1.5,19.5,5,28,10.6c3.2,2.1,5.8,5,7.5,8.4l1.1,2.2
		c1.7,4.6,3.4,11.8,4,15.3v0.1c0.3,4.3,0.9,8.7,1.8,12.9c2.7,12,7.9,23,15.5,32.7L66.6,148.4z"/>
</g>
</svg>
