<?xml version="1.0" encoding="utf-8"?>
<!-- Generator: Adobe Illustrator 26.0.0, SVG Export Plug-In . SVG Version: 6.00 Build 0)  -->
<svg version="1.1" id="Layer_1" xmlns="http://www.w3.org/2000/svg" xmlns:xlink="http://www.w3.org/1999/xlink" x="0px" y="0px"
	 viewBox="0 0 225 225" style="enable-background:new 0 0 225 225;" xml:space="preserve">
<style type="text/css">
	.st0{fill:#FFFFFF;}
</style>
<g>
	<path class="st0" d="M48.3,67.8c2.5-9.7,7.2-18.5,13.8-26.3C71.7,30.5,83.7,23.1,98,20c16.5-3.6,32.3-1.4,47,7
		c15,8.5,25.2,21,30.6,37.4c0.4,1.2,0.7,2.4,1.1,3.5h15.5c-4.6-21.4-16.1-38.5-34.4-50.8C139.4,4.7,119,0.7,97.1,4.7
		C84.7,7,73.4,12.1,63.4,19.8c-16.3,12.6-26.5,28.6-30.6,48L48.3,67.8L48.3,67.8z"/>
	<g>
		<path class="st0" d="M62.1,41.6C71.7,30.5,83.7,23.1,98,20c16.5-3.6,32.3-1.4,47,7c15,8.5,25.2,21,30.6,37.4
			c0.4,1.2,0.7,2.4,1.1,3.5h15.5c-4.6-21.4-16.1-38.5-34.4-50.8C139.4,4.7,119,0.7,97.1,4.7C84.7,7,73.4,12.1,63.4,19.8
			c-16.3,12.6-26.5,28.6-30.6,48h15.5C50.8,58.1,55.4,49.3,62.1,41.6z"/>
	</g>
	<path class="st0" d="M153.1,155.5c-11.4,17.3-24.9,32.8-39.6,47.4c-0.3,0.3-0.6,0.5-1.2,1c-2-2.1-4-4.2-6-6.2
		c-12.7-13.1-24.4-27.1-34.4-42.2h-18c0.2,0.3,0.4,0.6,0.5,0.9c14,22.7,31.1,43,50.6,61.2c1.7,1.6,3.8,2.8,5.8,4.2
		c1.1,0,2.3,0,3.4,0c1.4-0.9,2.9-1.5,4.1-2.6c15-13.8,28.5-28.8,40.5-45.3c4.4-6,8.5-12.1,12.3-18.4H153.1z"/>
	<path class="st0" d="M129.2,83.4v26.1H96v33.7H47c-5.5-10.6-9.9-21.7-12.8-33.4c-2.2-8.7-3.4-17.6-3.2-26.5H62v26.3H49.8
		c3,10.4,7.3,20.2,12.4,29.7v-29.9h33.3V83.4L129.2,83.4L129.2,83.4z"/>
	<path class="st0" d="M188.3,118.7c-2.8,8.5-6.3,16.7-10.3,24.6h-48.7v-33.7H163v29.6c5.1-9.4,9.4-19.2,12.3-29.6H163V83.4h31.1
		C194.3,95.4,192.1,107.1,188.3,118.7z"/>
</g>
</svg>
